<mxfile host="app.diagrams.net" agent="Mozilla/5.0 (Windows NT 10.0; Win64; x64; rv:135.0) Gecko/20100101 Firefox/135.0" version="26.0.16">
  <diagram name="Pagina-1" id="xXDUhA1cTyPcn6yYdcTW">
    <mxGraphModel dx="1228" dy="206" grid="1" gridSize="10" guides="1" tooltips="1" connect="1" arrows="1" fold="1" page="1" pageScale="1" pageWidth="827" pageHeight="1169" math="0" shadow="0">
      <root>
        <mxCell id="0" />
        <mxCell id="1" parent="0" />
        <mxCell id="b8Xn-FrnnSBAFmYbfaQa-20" style="edgeStyle=orthogonalEdgeStyle;rounded=0;orthogonalLoop=1;jettySize=auto;html=1;exitX=0;exitY=0.5;exitDx=0;exitDy=0;entryX=0.5;entryY=0;entryDx=0;entryDy=0;endArrow=none;endFill=0;" parent="1" source="b8Xn-FrnnSBAFmYbfaQa-10" target="b8Xn-FrnnSBAFmYbfaQa-19" edge="1">
          <mxGeometry relative="1" as="geometry" />
        </mxCell>
        <mxCell id="b8Xn-FrnnSBAFmYbfaQa-26" style="edgeStyle=orthogonalEdgeStyle;rounded=0;orthogonalLoop=1;jettySize=auto;html=1;exitX=0.5;exitY=1;exitDx=0;exitDy=0;entryX=0.5;entryY=0;entryDx=0;entryDy=0;endArrow=none;endFill=0;" parent="1" source="b8Xn-FrnnSBAFmYbfaQa-19" target="b8Xn-FrnnSBAFmYbfaQa-21" edge="1">
          <mxGeometry relative="1" as="geometry" />
        </mxCell>
        <mxCell id="b8Xn-FrnnSBAFmYbfaQa-19" value="definire" style="rhombus;whiteSpace=wrap;html=1;" parent="1" vertex="1">
          <mxGeometry x="-27" y="115" width="80" height="80" as="geometry" />
        </mxCell>
        <mxCell id="b8Xn-FrnnSBAFmYbfaQa-105" style="edgeStyle=orthogonalEdgeStyle;rounded=0;orthogonalLoop=1;jettySize=auto;html=1;exitX=0;exitY=0;exitDx=0;exitDy=0;entryX=1;entryY=0.5;entryDx=0;entryDy=0;endArrow=none;endFill=0;" parent="1" source="b8Xn-FrnnSBAFmYbfaQa-21" target="b8Xn-FrnnSBAFmYbfaQa-103" edge="1">
          <mxGeometry relative="1" as="geometry" />
        </mxCell>
        <mxCell id="b8Xn-FrnnSBAFmYbfaQa-21" value="MODELLO" style="whiteSpace=wrap;html=1;align=center;" parent="1" vertex="1">
          <mxGeometry x="-37" y="250" width="100" height="40" as="geometry" />
        </mxCell>
        <mxCell id="b8Xn-FrnnSBAFmYbfaQa-33" style="edgeStyle=orthogonalEdgeStyle;rounded=0;orthogonalLoop=1;jettySize=auto;html=1;exitX=0.5;exitY=0;exitDx=0;exitDy=0;entryX=0.5;entryY=1;entryDx=0;entryDy=0;endArrow=none;endFill=0;" parent="1" source="b8Xn-FrnnSBAFmYbfaQa-29" target="b8Xn-FrnnSBAFmYbfaQa-21" edge="1">
          <mxGeometry relative="1" as="geometry" />
        </mxCell>
        <mxCell id="b8Xn-FrnnSBAFmYbfaQa-29" value="" style="ellipse;whiteSpace=wrap;html=1;aspect=fixed;" parent="1" vertex="1">
          <mxGeometry x="9" y="305" width="10" height="10" as="geometry" />
        </mxCell>
        <mxCell id="b8Xn-FrnnSBAFmYbfaQa-22" value="ID" style="text;html=1;align=center;verticalAlign=middle;resizable=0;points=[];autosize=1;strokeColor=none;fillColor=none;container=0;" parent="1" vertex="1">
          <mxGeometry x="74.00333333333333" y="295" width="40" height="30" as="geometry" />
        </mxCell>
        <mxCell id="b8Xn-FrnnSBAFmYbfaQa-23" value="" style="shape=waypoint;sketch=0;size=6;pointerEvents=1;points=[];fillColor=none;resizable=1;rotatable=1;perimeter=centerPerimeter;snapToPoint=1;perimeterSpacing=0;strokeWidth=3;movable=1;deletable=1;editable=1;locked=0;connectable=1;container=0;" parent="1" vertex="1">
          <mxGeometry x="63.999999999999986" y="300" width="20" height="20" as="geometry" />
        </mxCell>
        <mxCell id="b8Xn-FrnnSBAFmYbfaQa-24" value="" style="endArrow=none;html=1;rounded=0;entryX=0.378;entryY=0.683;entryDx=0;entryDy=0;entryPerimeter=0;movable=1;resizable=1;rotatable=1;deletable=1;editable=1;locked=0;connectable=1;exitX=0.75;exitY=1;exitDx=0;exitDy=0;" parent="1" source="b8Xn-FrnnSBAFmYbfaQa-21" target="b8Xn-FrnnSBAFmYbfaQa-23" edge="1">
          <mxGeometry width="50" height="50" relative="1" as="geometry">
            <mxPoint x="59.55555555555556" y="300" as="sourcePoint" />
            <mxPoint x="152.88888888888886" y="345" as="targetPoint" />
          </mxGeometry>
        </mxCell>
        <mxCell id="b8Xn-FrnnSBAFmYbfaQa-32" value="tipo" style="text;html=1;align=center;verticalAlign=middle;resizable=0;points=[];autosize=1;strokeColor=none;fillColor=none;container=0;" parent="1" vertex="1">
          <mxGeometry x="-35.99666666666667" y="295" width="40" height="30" as="geometry" />
        </mxCell>
        <mxCell id="b8Xn-FrnnSBAFmYbfaQa-67" style="edgeStyle=orthogonalEdgeStyle;rounded=0;orthogonalLoop=1;jettySize=auto;html=1;exitX=1;exitY=1;exitDx=0;exitDy=0;entryX=0.5;entryY=0;entryDx=0;entryDy=0;endArrow=none;endFill=0;" parent="1" source="b8Xn-FrnnSBAFmYbfaQa-41" target="b8Xn-FrnnSBAFmYbfaQa-63" edge="1">
          <mxGeometry relative="1" as="geometry" />
        </mxCell>
        <mxCell id="b8Xn-FrnnSBAFmYbfaQa-68" style="edgeStyle=orthogonalEdgeStyle;rounded=0;orthogonalLoop=1;jettySize=auto;html=1;exitX=1;exitY=0;exitDx=0;exitDy=0;entryX=1;entryY=1;entryDx=0;entryDy=0;endArrow=none;endFill=0;" parent="1" source="b8Xn-FrnnSBAFmYbfaQa-41" target="b8Xn-FrnnSBAFmYbfaQa-59" edge="1">
          <mxGeometry relative="1" as="geometry" />
        </mxCell>
        <mxCell id="b8Xn-FrnnSBAFmYbfaQa-41" value="CATALOGO" style="whiteSpace=wrap;html=1;align=center;" parent="1" vertex="1">
          <mxGeometry x="721" y="190" width="100" height="40" as="geometry" />
        </mxCell>
        <mxCell id="b8Xn-FrnnSBAFmYbfaQa-49" style="edgeStyle=orthogonalEdgeStyle;rounded=0;orthogonalLoop=1;jettySize=auto;html=1;exitX=1;exitY=0.5;exitDx=0;exitDy=0;entryX=0;entryY=0.5;entryDx=0;entryDy=0;endArrow=none;endFill=0;" parent="1" source="b8Xn-FrnnSBAFmYbfaQa-47" target="b8Xn-FrnnSBAFmYbfaQa-41" edge="1">
          <mxGeometry relative="1" as="geometry" />
        </mxCell>
        <mxCell id="b8Xn-FrnnSBAFmYbfaQa-51" style="edgeStyle=orthogonalEdgeStyle;rounded=0;orthogonalLoop=1;jettySize=auto;html=1;exitX=0;exitY=0.5;exitDx=0;exitDy=0;entryX=1;entryY=0.5;entryDx=0;entryDy=0;endArrow=none;endFill=0;" parent="1" source="b8Xn-FrnnSBAFmYbfaQa-47" target="b8Xn-FrnnSBAFmYbfaQa-18" edge="1">
          <mxGeometry relative="1" as="geometry" />
        </mxCell>
        <mxCell id="b8Xn-FrnnSBAFmYbfaQa-47" value="formare" style="rhombus;whiteSpace=wrap;html=1;" parent="1" vertex="1">
          <mxGeometry x="581" y="170" width="80" height="80" as="geometry" />
        </mxCell>
        <mxCell id="b8Xn-FrnnSBAFmYbfaQa-198" style="edgeStyle=orthogonalEdgeStyle;rounded=0;orthogonalLoop=1;jettySize=auto;html=1;exitX=0.5;exitY=0;exitDx=0;exitDy=0;entryX=0;entryY=0.5;entryDx=0;entryDy=0;endArrow=none;endFill=0;" parent="1" source="b8Xn-FrnnSBAFmYbfaQa-1" target="b8Xn-FrnnSBAFmYbfaQa-194" edge="1">
          <mxGeometry relative="1" as="geometry" />
        </mxCell>
        <mxCell id="b8Xn-FrnnSBAFmYbfaQa-1" value="ACCESSORIO" style="whiteSpace=wrap;html=1;align=center;" parent="1" vertex="1">
          <mxGeometry x="470" y="70" width="100" height="40" as="geometry" />
        </mxCell>
        <mxCell id="b8Xn-FrnnSBAFmYbfaQa-189" style="edgeStyle=orthogonalEdgeStyle;rounded=0;orthogonalLoop=1;jettySize=auto;html=1;exitX=0.75;exitY=0;exitDx=0;exitDy=0;entryX=0.5;entryY=1;entryDx=0;entryDy=0;endArrow=none;endFill=0;" parent="1" source="b8Xn-FrnnSBAFmYbfaQa-10" target="b8Xn-FrnnSBAFmYbfaQa-187" edge="1">
          <mxGeometry relative="1" as="geometry" />
        </mxCell>
        <mxCell id="b8Xn-FrnnSBAFmYbfaQa-10" value="BORSA" style="whiteSpace=wrap;html=1;align=center;" parent="1" vertex="1">
          <mxGeometry x="340" y="70" width="100" height="40" as="geometry" />
        </mxCell>
        <mxCell id="b8Xn-FrnnSBAFmYbfaQa-14" value="" style="shape=singleArrow;whiteSpace=wrap;html=1;arrowWidth=0.4;arrowSize=0.4;rotation=90;fillColor=#000000;" parent="1" vertex="1">
          <mxGeometry x="430" y="140" width="50" height="40" as="geometry" />
        </mxCell>
        <mxCell id="b8Xn-FrnnSBAFmYbfaQa-16" style="edgeStyle=orthogonalEdgeStyle;rounded=0;orthogonalLoop=1;jettySize=auto;html=1;exitX=0.5;exitY=1;exitDx=0;exitDy=0;entryX=0;entryY=0;entryDx=0;entryDy=28;entryPerimeter=0;endArrow=none;endFill=0;" parent="1" source="b8Xn-FrnnSBAFmYbfaQa-10" target="b8Xn-FrnnSBAFmYbfaQa-14" edge="1">
          <mxGeometry relative="1" as="geometry" />
        </mxCell>
        <mxCell id="b8Xn-FrnnSBAFmYbfaQa-17" style="edgeStyle=orthogonalEdgeStyle;rounded=0;orthogonalLoop=1;jettySize=auto;html=1;exitX=0.5;exitY=1;exitDx=0;exitDy=0;entryX=0;entryY=0;entryDx=0;entryDy=12;entryPerimeter=0;endArrow=none;endFill=0;" parent="1" source="b8Xn-FrnnSBAFmYbfaQa-1" target="b8Xn-FrnnSBAFmYbfaQa-14" edge="1">
          <mxGeometry relative="1" as="geometry">
            <mxPoint x="400" y="120" as="sourcePoint" />
            <mxPoint x="457" y="145" as="targetPoint" />
          </mxGeometry>
        </mxCell>
        <mxCell id="b8Xn-FrnnSBAFmYbfaQa-38" style="edgeStyle=orthogonalEdgeStyle;rounded=0;orthogonalLoop=1;jettySize=auto;html=1;exitX=0.25;exitY=1;exitDx=0;exitDy=0;entryX=1;entryY=0;entryDx=0;entryDy=0;endArrow=none;endFill=0;" parent="1" source="b8Xn-FrnnSBAFmYbfaQa-18" target="b8Xn-FrnnSBAFmYbfaQa-34" edge="1">
          <mxGeometry relative="1" as="geometry" />
        </mxCell>
        <mxCell id="b8Xn-FrnnSBAFmYbfaQa-83" style="edgeStyle=orthogonalEdgeStyle;rounded=0;orthogonalLoop=1;jettySize=auto;html=1;exitX=0.25;exitY=0;exitDx=0;exitDy=0;entryX=1;entryY=1;entryDx=0;entryDy=0;endArrow=none;endFill=0;" parent="1" source="b8Xn-FrnnSBAFmYbfaQa-18" target="b8Xn-FrnnSBAFmYbfaQa-81" edge="1">
          <mxGeometry relative="1" as="geometry" />
        </mxCell>
        <mxCell id="b8Xn-FrnnSBAFmYbfaQa-88" style="edgeStyle=orthogonalEdgeStyle;rounded=0;orthogonalLoop=1;jettySize=auto;html=1;exitX=1;exitY=0;exitDx=0;exitDy=0;entryX=0.5;entryY=1;entryDx=0;entryDy=0;endArrow=none;endFill=0;" parent="1" source="b8Xn-FrnnSBAFmYbfaQa-18" target="b8Xn-FrnnSBAFmYbfaQa-84" edge="1">
          <mxGeometry relative="1" as="geometry" />
        </mxCell>
        <mxCell id="b8Xn-FrnnSBAFmYbfaQa-107" style="edgeStyle=orthogonalEdgeStyle;rounded=0;orthogonalLoop=1;jettySize=auto;html=1;exitX=0.351;exitY=1.014;exitDx=0;exitDy=0;entryX=0.5;entryY=0;entryDx=0;entryDy=0;endArrow=none;endFill=0;exitPerimeter=0;" parent="1" source="b8Xn-FrnnSBAFmYbfaQa-18" target="b8Xn-FrnnSBAFmYbfaQa-106" edge="1">
          <mxGeometry relative="1" as="geometry" />
        </mxCell>
        <mxCell id="b8Xn-FrnnSBAFmYbfaQa-182" style="edgeStyle=orthogonalEdgeStyle;rounded=0;orthogonalLoop=1;jettySize=auto;html=1;exitX=0.75;exitY=1;exitDx=0;exitDy=0;entryX=0;entryY=0;entryDx=0;entryDy=0;endArrow=none;endFill=0;" parent="1" source="b8Xn-FrnnSBAFmYbfaQa-18" target="b8Xn-FrnnSBAFmYbfaQa-181" edge="1">
          <mxGeometry relative="1" as="geometry" />
        </mxCell>
        <mxCell id="b8Xn-FrnnSBAFmYbfaQa-18" value="ARTICOLO" style="whiteSpace=wrap;html=1;align=center;" parent="1" vertex="1">
          <mxGeometry x="405" y="190" width="100" height="40" as="geometry" />
        </mxCell>
        <mxCell id="b8Xn-FrnnSBAFmYbfaQa-34" value="" style="ellipse;whiteSpace=wrap;html=1;aspect=fixed;" parent="1" vertex="1">
          <mxGeometry x="412" y="245" width="10" height="10" as="geometry" />
        </mxCell>
        <mxCell id="b8Xn-FrnnSBAFmYbfaQa-35" value="ID" style="text;html=1;align=center;verticalAlign=middle;resizable=0;points=[];autosize=1;strokeColor=none;fillColor=none;container=0;" parent="1" vertex="1">
          <mxGeometry x="505.00333333333333" y="235" width="40" height="30" as="geometry" />
        </mxCell>
        <mxCell id="b8Xn-FrnnSBAFmYbfaQa-36" value="" style="shape=waypoint;sketch=0;size=6;pointerEvents=1;points=[];fillColor=none;resizable=1;rotatable=1;perimeter=centerPerimeter;snapToPoint=1;perimeterSpacing=0;strokeWidth=3;movable=1;deletable=1;editable=1;locked=0;connectable=1;container=0;" parent="1" vertex="1">
          <mxGeometry x="495" y="240" width="20" height="20" as="geometry" />
        </mxCell>
        <mxCell id="b8Xn-FrnnSBAFmYbfaQa-37" style="edgeStyle=orthogonalEdgeStyle;rounded=0;orthogonalLoop=1;jettySize=auto;html=1;exitX=0.75;exitY=1;exitDx=0;exitDy=0;entryX=0.17;entryY=0.8;entryDx=0;entryDy=0;entryPerimeter=0;endArrow=none;endFill=0;" parent="1" source="b8Xn-FrnnSBAFmYbfaQa-18" target="b8Xn-FrnnSBAFmYbfaQa-36" edge="1">
          <mxGeometry relative="1" as="geometry" />
        </mxCell>
        <mxCell id="b8Xn-FrnnSBAFmYbfaQa-39" value="dimensione" style="text;html=1;align=center;verticalAlign=middle;resizable=0;points=[];autosize=1;strokeColor=none;fillColor=none;container=0;" parent="1" vertex="1">
          <mxGeometry x="360.00333333333333" y="243" width="80" height="30" as="geometry" />
        </mxCell>
        <mxCell id="b8Xn-FrnnSBAFmYbfaQa-52" value="ID" style="text;html=1;align=center;verticalAlign=middle;resizable=0;points=[];autosize=1;strokeColor=none;fillColor=none;container=0;" parent="1" vertex="1">
          <mxGeometry x="851.0033333333333" y="195" width="40" height="30" as="geometry" />
        </mxCell>
        <mxCell id="b8Xn-FrnnSBAFmYbfaQa-53" value="" style="shape=waypoint;sketch=0;size=6;pointerEvents=1;points=[];fillColor=none;resizable=1;rotatable=1;perimeter=centerPerimeter;snapToPoint=1;perimeterSpacing=0;strokeWidth=3;movable=1;deletable=1;editable=1;locked=0;connectable=1;container=0;" parent="1" vertex="1">
          <mxGeometry x="841" y="200" width="20" height="20" as="geometry" />
        </mxCell>
        <mxCell id="b8Xn-FrnnSBAFmYbfaQa-54" style="edgeStyle=orthogonalEdgeStyle;rounded=0;orthogonalLoop=1;jettySize=auto;html=1;exitX=1;exitY=0.5;exitDx=0;exitDy=0;entryX=0.24;entryY=0.48;entryDx=0;entryDy=0;entryPerimeter=0;endArrow=none;endFill=0;" parent="1" source="b8Xn-FrnnSBAFmYbfaQa-41" target="b8Xn-FrnnSBAFmYbfaQa-53" edge="1">
          <mxGeometry relative="1" as="geometry" />
        </mxCell>
        <mxCell id="b8Xn-FrnnSBAFmYbfaQa-58" value="stagione" style="text;html=1;align=center;verticalAlign=middle;resizable=0;points=[];autosize=1;strokeColor=none;fillColor=none;container=0;" parent="1" vertex="1">
          <mxGeometry x="747.0033333333333" y="147" width="70" height="30" as="geometry" />
        </mxCell>
        <mxCell id="b8Xn-FrnnSBAFmYbfaQa-59" value="" style="ellipse;whiteSpace=wrap;html=1;aspect=fixed;" parent="1" vertex="1">
          <mxGeometry x="811" y="160" width="10" height="10" as="geometry" />
        </mxCell>
        <mxCell id="b8Xn-FrnnSBAFmYbfaQa-62" value="nome" style="text;html=1;align=center;verticalAlign=middle;resizable=0;points=[];autosize=1;strokeColor=none;fillColor=none;container=0;" parent="1" vertex="1">
          <mxGeometry x="768.0033333333333" y="240" width="50" height="30" as="geometry" />
        </mxCell>
        <mxCell id="b8Xn-FrnnSBAFmYbfaQa-63" value="" style="ellipse;whiteSpace=wrap;html=1;aspect=fixed;" parent="1" vertex="1">
          <mxGeometry x="817" y="253" width="10" height="10" as="geometry" />
        </mxCell>
        <mxCell id="b8Xn-FrnnSBAFmYbfaQa-80" style="edgeStyle=orthogonalEdgeStyle;rounded=0;orthogonalLoop=1;jettySize=auto;html=1;exitX=1;exitY=0;exitDx=0;exitDy=0;entryX=0.5;entryY=1;entryDx=0;entryDy=0;endArrow=none;endFill=0;" parent="1" source="b8Xn-FrnnSBAFmYbfaQa-69" target="b8Xn-FrnnSBAFmYbfaQa-77" edge="1">
          <mxGeometry relative="1" as="geometry" />
        </mxCell>
        <mxCell id="b8Xn-FrnnSBAFmYbfaQa-69" value="TESSUTO" style="whiteSpace=wrap;html=1;align=center;" parent="1" vertex="1">
          <mxGeometry x="145" y="190" width="100" height="40" as="geometry" />
        </mxCell>
        <mxCell id="b8Xn-FrnnSBAFmYbfaQa-70" style="edgeStyle=orthogonalEdgeStyle;rounded=0;orthogonalLoop=1;jettySize=auto;html=1;exitX=0.5;exitY=0;exitDx=0;exitDy=0;entryX=0.5;entryY=1;entryDx=0;entryDy=0;endArrow=none;endFill=0;" parent="1" source="b8Xn-FrnnSBAFmYbfaQa-71" target="b8Xn-FrnnSBAFmYbfaQa-69" edge="1">
          <mxGeometry relative="1" as="geometry" />
        </mxCell>
        <mxCell id="b8Xn-FrnnSBAFmYbfaQa-71" value="" style="ellipse;whiteSpace=wrap;html=1;aspect=fixed;" parent="1" vertex="1">
          <mxGeometry x="190" y="245" width="10" height="10" as="geometry" />
        </mxCell>
        <mxCell id="b8Xn-FrnnSBAFmYbfaQa-72" value="codice" style="text;html=1;align=center;verticalAlign=middle;resizable=0;points=[];autosize=1;strokeColor=none;fillColor=none;container=0;" parent="1" vertex="1">
          <mxGeometry x="243.00333333333333" y="224" width="60" height="30" as="geometry" />
        </mxCell>
        <mxCell id="b8Xn-FrnnSBAFmYbfaQa-73" value="" style="shape=waypoint;sketch=0;size=6;pointerEvents=1;points=[];fillColor=none;resizable=1;rotatable=1;perimeter=centerPerimeter;snapToPoint=1;perimeterSpacing=0;strokeWidth=3;movable=1;deletable=1;editable=1;locked=0;connectable=1;container=0;" parent="1" vertex="1">
          <mxGeometry x="245" y="240" width="20" height="20" as="geometry" />
        </mxCell>
        <mxCell id="b8Xn-FrnnSBAFmYbfaQa-74" value="" style="endArrow=none;html=1;rounded=0;entryX=0.378;entryY=0.683;entryDx=0;entryDy=0;entryPerimeter=0;movable=1;resizable=1;rotatable=1;deletable=1;editable=1;locked=0;connectable=1;exitX=0.75;exitY=1;exitDx=0;exitDy=0;" parent="1" source="b8Xn-FrnnSBAFmYbfaQa-69" target="b8Xn-FrnnSBAFmYbfaQa-73" edge="1">
          <mxGeometry width="50" height="50" relative="1" as="geometry">
            <mxPoint x="240.55555555555554" y="240" as="sourcePoint" />
            <mxPoint x="333.88888888888886" y="285" as="targetPoint" />
          </mxGeometry>
        </mxCell>
        <mxCell id="b8Xn-FrnnSBAFmYbfaQa-75" value="materiale" style="text;html=1;align=center;verticalAlign=middle;resizable=0;points=[];autosize=1;strokeColor=none;fillColor=none;container=0;" parent="1" vertex="1">
          <mxGeometry x="125.00333333333333" y="233" width="70" height="30" as="geometry" />
        </mxCell>
        <mxCell id="b8Xn-FrnnSBAFmYbfaQa-77" value="" style="ellipse;whiteSpace=wrap;html=1;aspect=fixed;" parent="1" vertex="1">
          <mxGeometry x="235" y="160" width="10" height="10" as="geometry" />
        </mxCell>
        <mxCell id="b8Xn-FrnnSBAFmYbfaQa-78" value="colore" style="text;html=1;align=center;verticalAlign=middle;resizable=0;points=[];autosize=1;strokeColor=none;fillColor=none;container=0;" parent="1" vertex="1">
          <mxGeometry x="183.00333333333333" y="147" width="60" height="30" as="geometry" />
        </mxCell>
        <mxCell id="b8Xn-FrnnSBAFmYbfaQa-81" value="" style="ellipse;whiteSpace=wrap;html=1;aspect=fixed;" parent="1" vertex="1">
          <mxGeometry x="418" y="160" width="10" height="10" as="geometry" />
        </mxCell>
        <mxCell id="b8Xn-FrnnSBAFmYbfaQa-82" value="descrizione" style="text;html=1;align=center;verticalAlign=middle;resizable=0;points=[];autosize=1;strokeColor=none;fillColor=none;container=0;" parent="1" vertex="1">
          <mxGeometry x="338.00333333333333" y="150" width="80" height="30" as="geometry" />
        </mxCell>
        <mxCell id="b8Xn-FrnnSBAFmYbfaQa-84" value="" style="ellipse;whiteSpace=wrap;html=1;aspect=fixed;" parent="1" vertex="1">
          <mxGeometry x="485" y="160" width="10" height="10" as="geometry" />
        </mxCell>
        <mxCell id="b8Xn-FrnnSBAFmYbfaQa-85" value="foto" style="text;html=1;align=center;verticalAlign=middle;resizable=0;points=[];autosize=1;strokeColor=none;fillColor=none;container=0;" parent="1" vertex="1">
          <mxGeometry x="488.00333333333333" y="146" width="40" height="30" as="geometry" />
        </mxCell>
        <mxCell id="b8Xn-FrnnSBAFmYbfaQa-91" style="edgeStyle=orthogonalEdgeStyle;rounded=0;orthogonalLoop=1;jettySize=auto;html=1;exitX=0;exitY=0.5;exitDx=0;exitDy=0;entryX=1;entryY=0.5;entryDx=0;entryDy=0;endArrow=none;endFill=0;" parent="1" source="b8Xn-FrnnSBAFmYbfaQa-89" target="b8Xn-FrnnSBAFmYbfaQa-69" edge="1">
          <mxGeometry relative="1" as="geometry" />
        </mxCell>
        <mxCell id="b8Xn-FrnnSBAFmYbfaQa-92" style="edgeStyle=orthogonalEdgeStyle;rounded=0;orthogonalLoop=1;jettySize=auto;html=1;exitX=1;exitY=0.5;exitDx=0;exitDy=0;entryX=0;entryY=0.5;entryDx=0;entryDy=0;endArrow=none;endFill=0;" parent="1" source="b8Xn-FrnnSBAFmYbfaQa-89" target="b8Xn-FrnnSBAFmYbfaQa-18" edge="1">
          <mxGeometry relative="1" as="geometry" />
        </mxCell>
        <mxCell id="b8Xn-FrnnSBAFmYbfaQa-89" value="comporre" style="rhombus;whiteSpace=wrap;html=1;" parent="1" vertex="1">
          <mxGeometry x="280" y="170" width="80" height="80" as="geometry" />
        </mxCell>
        <mxCell id="b8Xn-FrnnSBAFmYbfaQa-94" value="&lt;font style=&quot;font-size: 8px;&quot;&gt;(1,N)&lt;/font&gt;" style="text;html=1;align=center;verticalAlign=middle;resizable=0;points=[];autosize=1;strokeColor=none;fillColor=none;" parent="1" vertex="1">
          <mxGeometry x="263" y="177" width="40" height="30" as="geometry" />
        </mxCell>
        <mxCell id="b8Xn-FrnnSBAFmYbfaQa-95" value="&lt;font style=&quot;font-size: 8px;&quot;&gt;(1,1)&lt;/font&gt;" style="text;html=1;align=center;verticalAlign=middle;resizable=0;points=[];autosize=1;strokeColor=none;fillColor=none;" parent="1" vertex="1">
          <mxGeometry x="340" y="177" width="40" height="30" as="geometry" />
        </mxCell>
        <mxCell id="b8Xn-FrnnSBAFmYbfaQa-96" value="&lt;font style=&quot;font-size: 8px;&quot;&gt;(1,1)&lt;/font&gt;" style="text;html=1;align=center;verticalAlign=middle;resizable=0;points=[];autosize=1;strokeColor=none;fillColor=none;" parent="1" vertex="1">
          <mxGeometry x="553" y="200" width="40" height="30" as="geometry" />
        </mxCell>
        <mxCell id="b8Xn-FrnnSBAFmYbfaQa-97" value="&lt;font style=&quot;font-size: 8px;&quot;&gt;(1,N)&lt;/font&gt;" style="text;html=1;align=center;verticalAlign=middle;resizable=0;points=[];autosize=1;strokeColor=none;fillColor=none;" parent="1" vertex="1">
          <mxGeometry x="650" y="180" width="40" height="30" as="geometry" />
        </mxCell>
        <mxCell id="b8Xn-FrnnSBAFmYbfaQa-98" value="&lt;font style=&quot;font-size: 8px;&quot;&gt;(1,N)&lt;/font&gt;" style="text;html=1;align=center;verticalAlign=middle;resizable=0;points=[];autosize=1;strokeColor=none;fillColor=none;" parent="1" vertex="1">
          <mxGeometry x="8" y="180" width="40" height="30" as="geometry" />
        </mxCell>
        <mxCell id="b8Xn-FrnnSBAFmYbfaQa-99" value="&lt;font style=&quot;font-size: 8px;&quot;&gt;(1,1)&lt;/font&gt;" style="text;html=1;align=center;verticalAlign=middle;resizable=0;points=[];autosize=1;strokeColor=none;fillColor=none;" parent="1" vertex="1">
          <mxGeometry x="8" y="100" width="40" height="30" as="geometry" />
        </mxCell>
        <mxCell id="b8Xn-FrnnSBAFmYbfaQa-103" value="" style="ellipse;whiteSpace=wrap;html=1;aspect=fixed;" parent="1" vertex="1">
          <mxGeometry x="-66" y="245" width="10" height="10" as="geometry" />
        </mxCell>
        <mxCell id="b8Xn-FrnnSBAFmYbfaQa-104" value="chiusura" style="text;html=1;align=center;verticalAlign=middle;resizable=0;points=[];autosize=1;strokeColor=none;fillColor=none;container=0;" parent="1" vertex="1">
          <mxGeometry x="-125.99666666666667" y="235" width="70" height="30" as="geometry" />
        </mxCell>
        <mxCell id="b8Xn-FrnnSBAFmYbfaQa-200" style="edgeStyle=orthogonalEdgeStyle;rounded=0;orthogonalLoop=1;jettySize=auto;html=1;exitX=0.5;exitY=1;exitDx=0;exitDy=0;entryX=0.5;entryY=0;entryDx=0;entryDy=0;endArrow=none;endFill=0;" parent="1" source="b8Xn-FrnnSBAFmYbfaQa-106" target="b8Xn-FrnnSBAFmYbfaQa-199" edge="1">
          <mxGeometry relative="1" as="geometry" />
        </mxCell>
        <mxCell id="b8Xn-FrnnSBAFmYbfaQa-106" value="appartenere" style="rhombus;whiteSpace=wrap;html=1;" parent="1" vertex="1">
          <mxGeometry x="400.5" y="293" width="80" height="80" as="geometry" />
        </mxCell>
        <mxCell id="b8Xn-FrnnSBAFmYbfaQa-119" style="edgeStyle=orthogonalEdgeStyle;rounded=0;orthogonalLoop=1;jettySize=auto;html=1;exitX=1;exitY=0;exitDx=0;exitDy=0;entryX=0.5;entryY=1;entryDx=0;entryDy=0;endArrow=none;endFill=0;" parent="1" source="b8Xn-FrnnSBAFmYbfaQa-109" target="b8Xn-FrnnSBAFmYbfaQa-110" edge="1">
          <mxGeometry relative="1" as="geometry" />
        </mxCell>
        <mxCell id="b8Xn-FrnnSBAFmYbfaQa-174" style="edgeStyle=orthogonalEdgeStyle;rounded=0;orthogonalLoop=1;jettySize=auto;html=1;exitX=1;exitY=1;exitDx=0;exitDy=0;entryX=0;entryY=0.5;entryDx=0;entryDy=0;endArrow=none;endFill=0;" parent="1" source="b8Xn-FrnnSBAFmYbfaQa-109" target="b8Xn-FrnnSBAFmYbfaQa-171" edge="1">
          <mxGeometry relative="1" as="geometry" />
        </mxCell>
        <mxCell id="b8Xn-FrnnSBAFmYbfaQa-109" value="CLIENTE" style="whiteSpace=wrap;html=1;align=center;" parent="1" vertex="1">
          <mxGeometry x="1059" y="256" width="100" height="41" as="geometry" />
        </mxCell>
        <mxCell id="b8Xn-FrnnSBAFmYbfaQa-110" value="" style="ellipse;whiteSpace=wrap;html=1;aspect=fixed;" parent="1" vertex="1">
          <mxGeometry x="1156" y="229" width="10" height="11" as="geometry" />
        </mxCell>
        <mxCell id="b8Xn-FrnnSBAFmYbfaQa-111" value="nome" style="text;html=1;align=center;verticalAlign=middle;resizable=0;points=[];autosize=1;strokeColor=none;fillColor=none;container=0;" parent="1" vertex="1">
          <mxGeometry x="1159.0033333333333" y="219" width="50" height="30" as="geometry" />
        </mxCell>
        <mxCell id="b8Xn-FrnnSBAFmYbfaQa-112" value="" style="ellipse;whiteSpace=wrap;html=1;aspect=fixed;" parent="1" vertex="1">
          <mxGeometry x="1082.5" y="229" width="10" height="11" as="geometry" />
        </mxCell>
        <mxCell id="b8Xn-FrnnSBAFmYbfaQa-113" value="cognome" style="text;html=1;align=center;verticalAlign=middle;resizable=0;points=[];autosize=1;strokeColor=none;fillColor=none;container=0;" parent="1" vertex="1">
          <mxGeometry x="1038.5033333333333" y="199" width="70" height="30" as="geometry" />
        </mxCell>
        <mxCell id="b8Xn-FrnnSBAFmYbfaQa-118" style="edgeStyle=orthogonalEdgeStyle;rounded=0;orthogonalLoop=1;jettySize=auto;html=1;exitX=0.5;exitY=1;exitDx=0;exitDy=0;entryX=0.25;entryY=0;entryDx=0;entryDy=0;endArrow=none;endFill=0;" parent="1" source="b8Xn-FrnnSBAFmYbfaQa-112" target="b8Xn-FrnnSBAFmYbfaQa-109" edge="1">
          <mxGeometry relative="1" as="geometry" />
        </mxCell>
        <mxCell id="b8Xn-FrnnSBAFmYbfaQa-121" value="" style="shape=waypoint;sketch=0;size=6;pointerEvents=1;points=[];fillColor=none;resizable=1;rotatable=1;perimeter=centerPerimeter;snapToPoint=1;perimeterSpacing=0;strokeWidth=3;movable=1;deletable=1;editable=1;locked=0;connectable=1;container=0;" parent="1" vertex="1">
          <mxGeometry x="1174" y="267" width="20" height="21" as="geometry" />
        </mxCell>
        <mxCell id="b8Xn-FrnnSBAFmYbfaQa-122" value="username" style="text;html=1;align=center;verticalAlign=middle;resizable=0;points=[];autosize=1;strokeColor=none;fillColor=none;container=0;" parent="1" vertex="1">
          <mxGeometry x="1179.0033333333333" y="260" width="80" height="30" as="geometry" />
        </mxCell>
        <mxCell id="b8Xn-FrnnSBAFmYbfaQa-123" style="edgeStyle=orthogonalEdgeStyle;rounded=0;orthogonalLoop=1;jettySize=auto;html=1;exitX=1;exitY=0.5;exitDx=0;exitDy=0;entryX=0.319;entryY=0.498;entryDx=0;entryDy=0;entryPerimeter=0;endArrow=none;endFill=0;" parent="1" source="b8Xn-FrnnSBAFmYbfaQa-109" target="b8Xn-FrnnSBAFmYbfaQa-121" edge="1">
          <mxGeometry relative="1" as="geometry" />
        </mxCell>
        <mxCell id="b8Xn-FrnnSBAFmYbfaQa-170" value="" style="ellipse;whiteSpace=wrap;html=1;aspect=fixed;" parent="1" vertex="1">
          <mxGeometry x="1136" y="317" width="10" height="11" as="geometry" />
        </mxCell>
        <mxCell id="b8Xn-FrnnSBAFmYbfaQa-171" value="" style="ellipse;whiteSpace=wrap;html=1;aspect=fixed;" parent="1" vertex="1">
          <mxGeometry x="1160" y="317" width="10" height="11" as="geometry" />
        </mxCell>
        <mxCell id="b8Xn-FrnnSBAFmYbfaQa-172" value="email" style="text;html=1;align=center;verticalAlign=middle;resizable=0;points=[];autosize=1;strokeColor=none;fillColor=none;container=0;" parent="1" vertex="1">
          <mxGeometry x="1118.0033333333333" y="318" width="50" height="30" as="geometry" />
        </mxCell>
        <mxCell id="b8Xn-FrnnSBAFmYbfaQa-173" value="password" style="text;html=1;align=center;verticalAlign=middle;resizable=0;points=[];autosize=1;strokeColor=none;fillColor=none;container=0;" parent="1" vertex="1">
          <mxGeometry x="1166.0033333333333" y="312" width="70" height="30" as="geometry" />
        </mxCell>
        <mxCell id="b8Xn-FrnnSBAFmYbfaQa-176" style="edgeStyle=orthogonalEdgeStyle;rounded=0;orthogonalLoop=1;jettySize=auto;html=1;exitX=0;exitY=0;exitDx=0;exitDy=0;entryX=0.414;entryY=1.021;entryDx=0;entryDy=0;entryPerimeter=0;endArrow=none;endFill=0;" parent="1" source="b8Xn-FrnnSBAFmYbfaQa-170" edge="1">
          <mxGeometry relative="1" as="geometry">
            <mxPoint x="1149" y="317" as="sourcePoint" />
            <mxPoint x="1136.4" y="296.84000000000003" as="targetPoint" />
          </mxGeometry>
        </mxCell>
        <mxCell id="b8Xn-FrnnSBAFmYbfaQa-177" value="&lt;font style=&quot;font-size: 8px;&quot;&gt;(1,1)&lt;/font&gt;" style="text;html=1;align=center;verticalAlign=middle;resizable=0;points=[];autosize=1;strokeColor=none;fillColor=none;" parent="1" vertex="1">
          <mxGeometry x="448" y="350" width="40" height="30" as="geometry" />
        </mxCell>
        <mxCell id="b8Xn-FrnnSBAFmYbfaQa-178" value="&lt;font style=&quot;font-size: 8px;&quot;&gt;(0,N)&lt;/font&gt;" style="text;html=1;align=center;verticalAlign=middle;resizable=0;points=[];autosize=1;strokeColor=none;fillColor=none;" parent="1" vertex="1">
          <mxGeometry x="448.5" y="290" width="40" height="30" as="geometry" />
        </mxCell>
        <mxCell id="b8Xn-FrnnSBAFmYbfaQa-181" value="" style="ellipse;whiteSpace=wrap;html=1;aspect=fixed;dashed=1;" parent="1" vertex="1">
          <mxGeometry x="472.5" y="263" width="10" height="10" as="geometry" />
        </mxCell>
        <mxCell id="b8Xn-FrnnSBAFmYbfaQa-183" value="numAcquisti" style="text;html=1;align=center;verticalAlign=middle;resizable=0;points=[];autosize=1;strokeColor=none;fillColor=none;container=0;" parent="1" vertex="1">
          <mxGeometry x="472.50333333333333" y="263" width="90" height="30" as="geometry" />
        </mxCell>
        <mxCell id="b8Xn-FrnnSBAFmYbfaQa-187" value="" style="ellipse;whiteSpace=wrap;html=1;aspect=fixed;" parent="1" vertex="1">
          <mxGeometry x="403" y="30" width="10" height="10" as="geometry" />
        </mxCell>
        <mxCell id="b8Xn-FrnnSBAFmYbfaQa-188" value="imbottitura" style="text;html=1;align=center;verticalAlign=middle;resizable=0;points=[];autosize=1;strokeColor=none;fillColor=none;container=0;" parent="1" vertex="1">
          <mxGeometry x="323.00333333333333" y="20" width="80" height="30" as="geometry" />
        </mxCell>
        <mxCell id="b8Xn-FrnnSBAFmYbfaQa-194" value="" style="ellipse;whiteSpace=wrap;html=1;aspect=fixed;" parent="1" vertex="1">
          <mxGeometry x="517" y="30" width="10" height="10" as="geometry" />
        </mxCell>
        <mxCell id="b8Xn-FrnnSBAFmYbfaQa-195" value="&lt;div&gt;indossabile&lt;/div&gt;" style="text;html=1;align=center;verticalAlign=middle;resizable=0;points=[];autosize=1;strokeColor=none;fillColor=none;container=0;" parent="1" vertex="1">
          <mxGeometry x="527.0033333333333" y="20" width="80" height="30" as="geometry" />
        </mxCell>
        <mxCell id="b8Xn-FrnnSBAFmYbfaQa-236" style="edgeStyle=orthogonalEdgeStyle;rounded=0;orthogonalLoop=1;jettySize=auto;html=1;entryX=0.5;entryY=0;entryDx=0;entryDy=0;endArrow=none;endFill=0;" parent="1" target="b8Xn-FrnnSBAFmYbfaQa-234" edge="1">
          <mxGeometry relative="1" as="geometry">
            <mxPoint x="466" y="471" as="sourcePoint" />
          </mxGeometry>
        </mxCell>
        <mxCell id="b8Xn-FrnnSBAFmYbfaQa-199" value="ARTICOLO ORDINE" style="whiteSpace=wrap;html=1;align=center;" parent="1" vertex="1">
          <mxGeometry x="390.5" y="431" width="100" height="40" as="geometry" />
        </mxCell>
        <mxCell id="b8Xn-FrnnSBAFmYbfaQa-225" style="edgeStyle=orthogonalEdgeStyle;rounded=0;orthogonalLoop=1;jettySize=auto;html=1;exitX=1;exitY=0.5;exitDx=0;exitDy=0;entryX=0;entryY=0.5;entryDx=0;entryDy=0;endArrow=none;endFill=0;" parent="1" source="b8Xn-FrnnSBAFmYbfaQa-202" target="b8Xn-FrnnSBAFmYbfaQa-204" edge="1">
          <mxGeometry relative="1" as="geometry">
            <Array as="points">
              <mxPoint x="710" y="451" />
            </Array>
          </mxGeometry>
        </mxCell>
        <mxCell id="b8Xn-FrnnSBAFmYbfaQa-229" style="edgeStyle=orthogonalEdgeStyle;rounded=0;orthogonalLoop=1;jettySize=auto;html=1;exitX=0;exitY=0.5;exitDx=0;exitDy=0;entryX=1;entryY=0.5;entryDx=0;entryDy=0;endArrow=none;endFill=0;" parent="1" source="b8Xn-FrnnSBAFmYbfaQa-202" target="b8Xn-FrnnSBAFmYbfaQa-199" edge="1">
          <mxGeometry relative="1" as="geometry" />
        </mxCell>
        <mxCell id="b8Xn-FrnnSBAFmYbfaQa-202" value="formare" style="rhombus;whiteSpace=wrap;html=1;" parent="1" vertex="1">
          <mxGeometry x="562.5" y="411" width="80" height="80" as="geometry" />
        </mxCell>
        <mxCell id="b8Xn-FrnnSBAFmYbfaQa-204" value="ORDINE" style="whiteSpace=wrap;html=1;align=center;" parent="1" vertex="1">
          <mxGeometry x="756" y="431" width="100" height="40" as="geometry" />
        </mxCell>
        <mxCell id="b8Xn-FrnnSBAFmYbfaQa-205" style="edgeStyle=orthogonalEdgeStyle;rounded=0;orthogonalLoop=1;jettySize=auto;html=1;exitX=0.5;exitY=0;exitDx=0;exitDy=0;entryX=0.25;entryY=1;entryDx=0;entryDy=0;endArrow=none;endFill=0;" parent="1" source="b8Xn-FrnnSBAFmYbfaQa-206" target="b8Xn-FrnnSBAFmYbfaQa-204" edge="1">
          <mxGeometry relative="1" as="geometry">
            <mxPoint x="781.75" y="481" as="targetPoint" />
          </mxGeometry>
        </mxCell>
        <mxCell id="b8Xn-FrnnSBAFmYbfaQa-206" value="" style="ellipse;whiteSpace=wrap;html=1;aspect=fixed;" parent="1" vertex="1">
          <mxGeometry x="779.25" y="489" width="10" height="10" as="geometry" />
        </mxCell>
        <mxCell id="b8Xn-FrnnSBAFmYbfaQa-207" value="indirizzo" style="text;html=1;align=center;verticalAlign=middle;resizable=0;points=[];autosize=1;strokeColor=none;fillColor=none;container=0;" parent="1" vertex="1">
          <mxGeometry x="714.7533333333333" y="472" width="70" height="30" as="geometry" />
        </mxCell>
        <mxCell id="b8Xn-FrnnSBAFmYbfaQa-208" value="" style="ellipse;whiteSpace=wrap;html=1;aspect=fixed;" parent="1" vertex="1">
          <mxGeometry x="754.75" y="525" width="10" height="10" as="geometry" />
        </mxCell>
        <mxCell id="b8Xn-FrnnSBAFmYbfaQa-209" value="" style="ellipse;whiteSpace=wrap;html=1;aspect=fixed;" parent="1" vertex="1">
          <mxGeometry x="789.25" y="525" width="10" height="10" as="geometry" />
        </mxCell>
        <mxCell id="b8Xn-FrnnSBAFmYbfaQa-210" value="" style="endArrow=none;html=1;rounded=0;exitX=0.5;exitY=0;exitDx=0;exitDy=0;entryX=0;entryY=1;entryDx=0;entryDy=0;" parent="1" source="b8Xn-FrnnSBAFmYbfaQa-208" target="b8Xn-FrnnSBAFmYbfaQa-206" edge="1">
          <mxGeometry width="50" height="50" relative="1" as="geometry">
            <mxPoint x="774.75" y="395" as="sourcePoint" />
            <mxPoint x="824.75" y="345" as="targetPoint" />
          </mxGeometry>
        </mxCell>
        <mxCell id="b8Xn-FrnnSBAFmYbfaQa-211" value="" style="endArrow=none;html=1;rounded=0;exitX=0.5;exitY=0;exitDx=0;exitDy=0;entryX=0.5;entryY=1;entryDx=0;entryDy=0;" parent="1" source="b8Xn-FrnnSBAFmYbfaQa-209" target="b8Xn-FrnnSBAFmYbfaQa-206" edge="1">
          <mxGeometry width="50" height="50" relative="1" as="geometry">
            <mxPoint x="769.75" y="535" as="sourcePoint" />
            <mxPoint x="790.75" y="504" as="targetPoint" />
          </mxGeometry>
        </mxCell>
        <mxCell id="b8Xn-FrnnSBAFmYbfaQa-212" value="via" style="text;html=1;align=center;verticalAlign=middle;resizable=0;points=[];autosize=1;strokeColor=none;fillColor=none;container=0;" parent="1" vertex="1">
          <mxGeometry x="711.7533333333333" y="525" width="40" height="30" as="geometry" />
        </mxCell>
        <mxCell id="b8Xn-FrnnSBAFmYbfaQa-213" value="civico" style="text;html=1;align=center;verticalAlign=middle;resizable=0;points=[];autosize=1;strokeColor=none;fillColor=none;container=0;" parent="1" vertex="1">
          <mxGeometry x="774.2533333333333" y="525" width="50" height="30" as="geometry" />
        </mxCell>
        <mxCell id="b8Xn-FrnnSBAFmYbfaQa-214" value="" style="ellipse;whiteSpace=wrap;html=1;aspect=fixed;" parent="1" vertex="1">
          <mxGeometry x="824.25" y="525" width="10" height="10" as="geometry" />
        </mxCell>
        <mxCell id="b8Xn-FrnnSBAFmYbfaQa-215" value="CAP" style="text;html=1;align=center;verticalAlign=middle;resizable=0;points=[];autosize=1;strokeColor=none;fillColor=none;container=0;" parent="1" vertex="1">
          <mxGeometry x="824.2533333333333" y="515" width="50" height="30" as="geometry" />
        </mxCell>
        <mxCell id="b8Xn-FrnnSBAFmYbfaQa-216" value="" style="endArrow=none;html=1;rounded=0;entryX=1;entryY=1;entryDx=0;entryDy=0;" parent="1" target="b8Xn-FrnnSBAFmYbfaQa-206" edge="1">
          <mxGeometry width="50" height="50" relative="1" as="geometry">
            <mxPoint x="826.75" y="524" as="sourcePoint" />
            <mxPoint x="796.75" y="489" as="targetPoint" />
          </mxGeometry>
        </mxCell>
        <mxCell id="b8Xn-FrnnSBAFmYbfaQa-219" value="ID" style="text;html=1;align=center;verticalAlign=middle;resizable=0;points=[];autosize=1;strokeColor=none;fillColor=none;container=0;" parent="1" vertex="1">
          <mxGeometry x="678.5033333333333" y="395" width="40" height="30" as="geometry" />
        </mxCell>
        <mxCell id="b8Xn-FrnnSBAFmYbfaQa-220" value="" style="shape=waypoint;sketch=0;size=6;pointerEvents=1;points=[];fillColor=none;resizable=1;rotatable=1;perimeter=centerPerimeter;snapToPoint=1;perimeterSpacing=0;strokeWidth=3;movable=1;deletable=1;editable=1;locked=0;connectable=1;container=0;" parent="1" vertex="1">
          <mxGeometry x="711" y="400" width="20" height="20" as="geometry" />
        </mxCell>
        <mxCell id="b8Xn-FrnnSBAFmYbfaQa-221" style="edgeStyle=orthogonalEdgeStyle;rounded=0;orthogonalLoop=1;jettySize=auto;html=1;exitX=0;exitY=0;exitDx=0;exitDy=0;entryX=0.933;entryY=0.533;entryDx=0;entryDy=0;entryPerimeter=0;endArrow=none;endFill=0;" parent="1" source="b8Xn-FrnnSBAFmYbfaQa-204" target="b8Xn-FrnnSBAFmYbfaQa-220" edge="1">
          <mxGeometry relative="1" as="geometry">
            <Array as="points">
              <mxPoint x="741" y="410" />
              <mxPoint x="741" y="410" />
            </Array>
          </mxGeometry>
        </mxCell>
        <mxCell id="b8Xn-FrnnSBAFmYbfaQa-222" value="" style="group" parent="1" vertex="1" connectable="0">
          <mxGeometry x="740" y="374" width="118" height="56" as="geometry" />
        </mxCell>
        <mxCell id="b8Xn-FrnnSBAFmYbfaQa-228" style="edgeStyle=orthogonalEdgeStyle;rounded=0;orthogonalLoop=1;jettySize=auto;html=1;exitX=0.5;exitY=1;exitDx=0;exitDy=0;endArrow=none;endFill=0;" parent="b8Xn-FrnnSBAFmYbfaQa-222" source="b8Xn-FrnnSBAFmYbfaQa-217" edge="1">
          <mxGeometry relative="1" as="geometry">
            <mxPoint x="113.14814814814781" y="57" as="targetPoint" />
          </mxGeometry>
        </mxCell>
        <mxCell id="b8Xn-FrnnSBAFmYbfaQa-217" value="" style="ellipse;whiteSpace=wrap;html=1;aspect=fixed;" parent="b8Xn-FrnnSBAFmYbfaQa-222" vertex="1">
          <mxGeometry x="108" y="28" width="10" height="10" as="geometry" />
        </mxCell>
        <mxCell id="b8Xn-FrnnSBAFmYbfaQa-218" value="stato" style="text;html=1;align=center;verticalAlign=middle;resizable=0;points=[];autosize=1;strokeColor=none;fillColor=none;container=0;" parent="b8Xn-FrnnSBAFmYbfaQa-222" vertex="1">
          <mxGeometry x="58.00333333333333" y="18" width="50" height="30" as="geometry" />
        </mxCell>
        <mxCell id="b8Xn-FrnnSBAFmYbfaQa-224" value="" style="shape=waypoint;sketch=0;size=6;pointerEvents=1;points=[];fillColor=none;resizable=1;rotatable=1;perimeter=centerPerimeter;snapToPoint=1;perimeterSpacing=0;strokeWidth=3;movable=1;deletable=1;editable=1;locked=0;connectable=1;container=0;" parent="1" vertex="1">
          <mxGeometry x="355.35" y="455" width="18.153846153846153" height="16" as="geometry" />
        </mxCell>
        <mxCell id="b8Xn-FrnnSBAFmYbfaQa-230" style="edgeStyle=orthogonalEdgeStyle;rounded=0;orthogonalLoop=1;jettySize=auto;html=1;exitX=0.25;exitY=1;exitDx=0;exitDy=0;entryX=1;entryY=0;entryDx=0;entryDy=0;endArrow=none;endFill=0;" parent="1" target="b8Xn-FrnnSBAFmYbfaQa-231" edge="1">
          <mxGeometry relative="1" as="geometry">
            <mxPoint x="421.5" y="471" as="sourcePoint" />
          </mxGeometry>
        </mxCell>
        <mxCell id="b8Xn-FrnnSBAFmYbfaQa-231" value="" style="ellipse;whiteSpace=wrap;html=1;aspect=fixed;" parent="1" vertex="1">
          <mxGeometry x="394.5" y="486" width="10" height="10" as="geometry" />
        </mxCell>
        <mxCell id="b8Xn-FrnnSBAFmYbfaQa-232" value="quantita" style="text;html=1;align=center;verticalAlign=middle;resizable=0;points=[];autosize=1;strokeColor=none;fillColor=none;container=0;" parent="1" vertex="1">
          <mxGeometry x="336.00333333333333" y="488" width="70" height="30" as="geometry" />
        </mxCell>
        <mxCell id="b8Xn-FrnnSBAFmYbfaQa-234" value="" style="ellipse;whiteSpace=wrap;html=1;aspect=fixed;" parent="1" vertex="1">
          <mxGeometry x="480.5" y="487" width="10" height="10" as="geometry" />
        </mxCell>
        <mxCell id="b8Xn-FrnnSBAFmYbfaQa-235" value="prezzo" style="text;html=1;align=center;verticalAlign=middle;resizable=0;points=[];autosize=1;strokeColor=none;fillColor=none;container=0;" parent="1" vertex="1">
          <mxGeometry x="481.50333333333333" y="487" width="60" height="30" as="geometry" />
        </mxCell>
        <mxCell id="b8Xn-FrnnSBAFmYbfaQa-237" value="" style="shape=partialRectangle;whiteSpace=wrap;html=1;bottom=1;right=1;left=1;top=0;fillColor=none;routingCenterX=-0.5;rotation=-180;" parent="1" vertex="1">
          <mxGeometry x="365" y="404" width="155" height="58" as="geometry" />
        </mxCell>
        <mxCell id="b8Xn-FrnnSBAFmYbfaQa-238" value="" style="shape=waypoint;sketch=0;size=6;pointerEvents=1;points=[];fillColor=none;resizable=1;rotatable=1;perimeter=centerPerimeter;snapToPoint=1;perimeterSpacing=0;strokeWidth=3;movable=1;deletable=1;editable=1;locked=0;connectable=1;container=0;" parent="1" vertex="1">
          <mxGeometry x="510.92" y="455" width="18.153846153846153" height="16" as="geometry" />
        </mxCell>
        <mxCell id="_65jNyK_9H4GoqMfcNRg-7" style="edgeStyle=orthogonalEdgeStyle;rounded=0;orthogonalLoop=1;jettySize=auto;html=1;exitX=0.5;exitY=0;exitDx=0;exitDy=0;entryX=0.5;entryY=1;entryDx=0;entryDy=0;endArrow=none;startFill=0;" edge="1" parent="1" source="_65jNyK_9H4GoqMfcNRg-5" target="b8Xn-FrnnSBAFmYbfaQa-109">
          <mxGeometry relative="1" as="geometry" />
        </mxCell>
        <mxCell id="_65jNyK_9H4GoqMfcNRg-5" value="formare" style="rhombus;whiteSpace=wrap;html=1;" vertex="1" parent="1">
          <mxGeometry x="1069" y="350" width="80" height="80" as="geometry" />
        </mxCell>
        <mxCell id="_65jNyK_9H4GoqMfcNRg-8" style="edgeStyle=orthogonalEdgeStyle;rounded=0;orthogonalLoop=1;jettySize=auto;html=1;exitX=0.5;exitY=1;exitDx=0;exitDy=0;entryX=1.002;entryY=0.634;entryDx=0;entryDy=0;entryPerimeter=0;endArrow=none;startFill=0;" edge="1" parent="1" source="_65jNyK_9H4GoqMfcNRg-5" target="b8Xn-FrnnSBAFmYbfaQa-204">
          <mxGeometry relative="1" as="geometry" />
        </mxCell>
        <mxCell id="_65jNyK_9H4GoqMfcNRg-13" style="edgeStyle=orthogonalEdgeStyle;rounded=0;orthogonalLoop=1;jettySize=auto;html=1;exitX=0.5;exitY=1;exitDx=0;exitDy=0;entryX=0.5;entryY=0;entryDx=0;entryDy=0;endArrow=none;startFill=0;" edge="1" parent="1" source="_65jNyK_9H4GoqMfcNRg-12" target="b8Xn-FrnnSBAFmYbfaQa-109">
          <mxGeometry relative="1" as="geometry" />
        </mxCell>
        <mxCell id="_65jNyK_9H4GoqMfcNRg-15" style="edgeStyle=orthogonalEdgeStyle;rounded=0;orthogonalLoop=1;jettySize=auto;html=1;exitX=0.5;exitY=0;exitDx=0;exitDy=0;entryX=1;entryY=0.5;entryDx=0;entryDy=0;endArrow=none;startFill=0;" edge="1" parent="1" source="_65jNyK_9H4GoqMfcNRg-12" target="_65jNyK_9H4GoqMfcNRg-14">
          <mxGeometry relative="1" as="geometry" />
        </mxCell>
        <mxCell id="_65jNyK_9H4GoqMfcNRg-12" value="formare" style="rhombus;whiteSpace=wrap;html=1;" vertex="1" parent="1">
          <mxGeometry x="1069" y="114" width="80" height="80" as="geometry" />
        </mxCell>
        <mxCell id="_65jNyK_9H4GoqMfcNRg-14" value="Pagamento" style="whiteSpace=wrap;html=1;align=center;" vertex="1" parent="1">
          <mxGeometry x="930" y="50" width="100" height="40" as="geometry" />
        </mxCell>
        <mxCell id="_65jNyK_9H4GoqMfcNRg-18" value="" style="shape=waypoint;sketch=0;size=6;pointerEvents=1;points=[];fillColor=none;resizable=1;rotatable=1;perimeter=centerPerimeter;snapToPoint=1;perimeterSpacing=0;strokeWidth=3;movable=1;deletable=1;editable=1;locked=0;connectable=1;container=0;" vertex="1" parent="1">
          <mxGeometry x="890" y="59.5" width="20" height="21" as="geometry" />
        </mxCell>
        <mxCell id="_65jNyK_9H4GoqMfcNRg-19" value="numCarta" style="text;html=1;align=center;verticalAlign=middle;resizable=0;points=[];autosize=1;strokeColor=none;fillColor=none;container=0;" vertex="1" parent="1">
          <mxGeometry x="821.0033333333333" y="50.5" width="80" height="30" as="geometry" />
        </mxCell>
        <mxCell id="_65jNyK_9H4GoqMfcNRg-20" style="edgeStyle=orthogonalEdgeStyle;rounded=0;orthogonalLoop=1;jettySize=auto;html=1;exitX=0;exitY=0.5;exitDx=0;exitDy=0;entryX=0.772;entryY=0.529;entryDx=0;entryDy=0;entryPerimeter=0;endArrow=none;startFill=0;" edge="1" parent="1" source="_65jNyK_9H4GoqMfcNRg-14" target="_65jNyK_9H4GoqMfcNRg-18">
          <mxGeometry relative="1" as="geometry" />
        </mxCell>
        <mxCell id="_65jNyK_9H4GoqMfcNRg-24" value="scadenza" style="text;html=1;align=center;verticalAlign=middle;resizable=0;points=[];autosize=1;strokeColor=none;fillColor=none;container=0;" vertex="1" parent="1">
          <mxGeometry x="874.2533333333333" y="90" width="70" height="30" as="geometry" />
        </mxCell>
        <mxCell id="_65jNyK_9H4GoqMfcNRg-25" value="" style="ellipse;whiteSpace=wrap;html=1;aspect=fixed;" vertex="1" parent="1">
          <mxGeometry x="938.25" y="103" width="10" height="10" as="geometry" />
        </mxCell>
        <mxCell id="_65jNyK_9H4GoqMfcNRg-26" value="mese" style="text;html=1;align=center;verticalAlign=middle;resizable=0;points=[];autosize=1;strokeColor=none;fillColor=none;container=0;" vertex="1" parent="1">
          <mxGeometry x="851.0033333333333" y="120" width="50" height="30" as="geometry" />
        </mxCell>
        <mxCell id="_65jNyK_9H4GoqMfcNRg-27" value="" style="ellipse;whiteSpace=wrap;html=1;aspect=fixed;" vertex="1" parent="1">
          <mxGeometry x="905" y="130" width="10" height="10" as="geometry" />
        </mxCell>
        <mxCell id="_65jNyK_9H4GoqMfcNRg-28" value="anno" style="text;html=1;align=center;verticalAlign=middle;resizable=0;points=[];autosize=1;strokeColor=none;fillColor=none;container=0;" vertex="1" parent="1">
          <mxGeometry x="935.0033333333333" y="119" width="50" height="30" as="geometry" />
        </mxCell>
        <mxCell id="_65jNyK_9H4GoqMfcNRg-29" value="" style="ellipse;whiteSpace=wrap;html=1;aspect=fixed;" vertex="1" parent="1">
          <mxGeometry x="985" y="129" width="10" height="10" as="geometry" />
        </mxCell>
        <mxCell id="_65jNyK_9H4GoqMfcNRg-31" value="" style="endArrow=none;html=1;rounded=0;exitX=0.5;exitY=0;exitDx=0;exitDy=0;entryX=1;entryY=0.5;entryDx=0;entryDy=0;" edge="1" parent="1" source="_65jNyK_9H4GoqMfcNRg-29" target="_65jNyK_9H4GoqMfcNRg-25">
          <mxGeometry width="50" height="50" relative="1" as="geometry">
            <mxPoint x="930" y="170" as="sourcePoint" />
            <mxPoint x="980" y="120" as="targetPoint" />
          </mxGeometry>
        </mxCell>
        <mxCell id="_65jNyK_9H4GoqMfcNRg-32" value="" style="endArrow=none;html=1;rounded=0;exitX=0.595;exitY=-0.061;exitDx=0;exitDy=0;entryX=0.077;entryY=0.687;entryDx=0;entryDy=0;entryPerimeter=0;exitPerimeter=0;" edge="1" parent="1" source="_65jNyK_9H4GoqMfcNRg-27" target="_65jNyK_9H4GoqMfcNRg-25">
          <mxGeometry width="50" height="50" relative="1" as="geometry">
            <mxPoint x="994" y="142" as="sourcePoint" />
            <mxPoint x="958" y="118" as="targetPoint" />
          </mxGeometry>
        </mxCell>
      </root>
    </mxGraphModel>
  </diagram>
</mxfile>
